# xmcd
#
# Track frame offsets: 
#        150
#        13510
#        23130
#        39959
#        64771
#        82429
#        93393
#        108725
#        124684
#        147999
#
# Disc length: 2159 seconds
#
# Revision: 0
# Processed by: cddbd v1.5.2PL0 Copyright (c) Steve Scherf et al.
# Submitted via: ExactAudioCopy v0.99pb5
#
DISCID=85086d0a
DTITLE=Pat Travers  - Radio Active  FLAC
DYEAR=1900
DGENRE=
TTITLE0=New Age Music
TTITLE1=My Life Is On The Line (H)
TTITLE2=(I Just Wanna) Live It My Way (H)
TTITLE3=I Don't Wanna Be Awake (H)
TTITLE4=I Can Love You (H)
TTITLE5=Untitled (H)
TTITLE6=Feelin' In Love (H)
TTITLE7=Feelin' In Love
TTITLE8=Play It Like You See It
TTITLE9=Electric Detective
EXTD=
EXTT0=
EXTT1=
EXTT2=
EXTT3=
EXTT4=
EXTT5=
EXTT6=
EXTT7=
EXTT8=
EXTT9=
PLAYORDER=
